<svg preserveAspectRatio="xMidYMid meet" viewBox="0 0 500.2 154.4" xmlns="http://www.w3.org/2000/svg"><g fill="#fff"><path d="m413.6 33.7 20.2 61.2.5.1 19.5-61h25.3c-1.6 4.2-3.1 8.4-4.6 12.5-11 29.6-22 59.2-33.1 88.8-2.4 6.4-6 12.1-12.2 15.5-4.8 2.5-10.1 3.8-15.6 3.7-5.8.1-11.5-.3-17.4-.5v-20.3c2.6.2 5.1.4 7.6.6 1.6.1 3.2.2 4.8.2 7.6-.1 12.5-5.9 11.1-13.4-.3-1.7-.8-3.4-1.5-5-7.9-21.3-15.8-42.6-23.8-63.9-.6-1.6-1.3-2.2-3-2s-3.7 0-5.8 0v72.9h-24.6v-72.7h-8.9v72.8h-24.5v-19.8c-.3.1-.5.2-.5.2-3.1 10-10.1 16.2-19.9 19.2-13.1 4-27.1 3.9-40.1-.2-9-2.8-15.7-8.4-19.4-17.3-.2-.2-.3-.5-.5-.7v18.6h-23.4v-12.1l-.7-.5c-.1.4-.3.8-.5 1.2-5.9 9.2-14.8 13.2-25.3 13.7-4.5.2-9-.2-13.3-1.2-11.6-2.6-17.9-10.4-19.7-21.9-.7-4.4-1.1-8.8-1.2-13.2-.1-17.9-.1-35.9-.1-53.8v-1.4h24.5v2.2c0 16.1-.1 32.2.1 48.3.1 4.1.6 8.2 1.5 12.1 1.4 6.2 5.7 9.4 11.9 9.8 2.7.2 5.4 0 8-.5 7.3-1.5 11.5-6.4 12.7-15 .5-3.4.8-6.7.8-10.1.1-14.8 0-29.6 0-44.4v-2.4h24.5v60.6h21.8c.1.9.1 1.6.3 2.3.6 4.5 3.5 8.5 7.7 10.3 6.3 3.1 13.7 3.3 20.1.5 1.6-.7 3.1-1.8 4.3-3.1 4.1-4.4 3.2-10.8-2.1-13.5-3.8-1.8-7.9-3.2-12-4.2-7-2-14.2-3.4-21.2-5.5-6.1-1.8-11.8-4.7-15.2-10.3-1.3-2.2-2.3-4.6-2.7-7.1-2.1-13.5 4.1-24.2 16.9-29 8.4-3.2 17.2-3.8 26.1-3.3 5.7.2 11.3 1.3 16.7 3.3 11 4.4 17.9 13.9 18.1 24.8h-23c-.1-.1-.2-.2-.2-.3-.6-6.2-4.2-9.5-10.1-10.7-4.6-1.1-9.5-1.1-14.1.1-4.3 1.1-6.4 3.9-6.4 7.8 0 2.3 1.2 4.4 3.1 5.7 3.6 2.6 7.9 3.6 12.1 4.6 7.3 1.8 14.7 3.5 22 5.4 2.2.6 4.3 1.5 6.4 2.6 5.4 2.5 9.6 7 11.8 12.4v-53.4h33.5v-7.7c.2-7.4 2.5-14 7.9-19.2 4.1-3.9 9.2-5.7 14.7-6.6 6.7-1.1 13.4-.3 20.2.3v17.5h-10.3c-4.9.3-7.4 2.6-7.9 7.7-.2 2.5 0 5 0 7.6zm-364.9.3v11.7l.6.4c.2-.4.4-.9.7-1.3 11-14.7 28.5-15.8 41.7-10.1 4.4 2 7.9 5.4 10.1 9.7l1 1.8c.4-.4.7-.7.9-1 8.6-11.1 19.9-15.4 33.8-13 1.8.3 3.5.6 5.3 1.1 11.2 3.1 18.4 11.9 19.4 24 .2 2.8.4 5.6.4 8.4v57.6h-24.6v-52.3c0-3.2-.2-6.4-.8-9.5-1.2-6.6-5.7-10.3-12.4-10.8-11.8-.9-16.9 6.4-18 15.6-.3 2.7-.5 5.4-.4 8.1v48.9h-24.5v-53.5c0-3-.2-6-.8-9-1.3-6.5-5.3-9.8-11.9-10.2-9.7-.6-17.2 5.5-18.5 15.1-.3 2-.4 3.9-.4 5.9v51.4h-24.4v-89zm-48.7.1h24.2v89.1h-24.2zm500.2 63v26.2h-27v-26.2zm-476-76.9h-24.2v-20.1h24.2z"/><path d="m327.9.1h24.2v20.1h-24.2zm16.5 145.8c-.3 2.1-1.2 4-2.5 5.6-1.2 1.3-2.8 1.9-4.5 1.9-.8 0-1.6-.2-2.2-.6-.7-.4-1.2-1.1-1.6-1.8l-.7 2.1h-3.1l4.6-23.1h3.5l-1.7 8.5c.5-.5 1.1-.9 1.8-1.2s1.4-.4 2.1-.4c1.7 0 3.2 1 3.9 2.5.9 2 1 4.2.5 6.3zm-3.5-.4c.4-1.4.4-2.9 0-4.3-.3-1-1.2-1.7-2.2-1.6-.6 0-1.2.2-1.7.6-.6.4-1.1 1-1.4 1.6l-1.4 6.9c.2.5.5 1 1 1.3s1.2.5 1.8.4c1 0 1.9-.4 2.5-1.2.7-1 1.2-2.2 1.4-3.4zm11.7 7.8c-1.8.1-3.6-.7-4.7-2.2-1.1-1.7-1.4-3.7-1-5.7l.1-.6c.3-2.2 1.3-4.3 2.8-5.9 1.3-1.4 3.1-2.2 5.1-2.2 1.7-.1 3.3.6 4.3 2 .9 1.6 1.2 3.5.8 5.2l-.3 2.1h-9.3c-.2 1.1 0 2.2.5 3.2.5.8 1.4 1.3 2.4 1.2.8 0 1.6-.1 2.3-.4.7-.2 1.4-.6 2-1l.7 2.4c-.7.6-1.6 1-2.4 1.4-1.1.4-2.2.6-3.3.5zm1.8-13.7c-.8 0-1.6.4-2.1 1.1-.7.8-1.1 1.7-1.4 2.7v.1h5.6l.1-.4c.2-.8.1-1.7-.3-2.5-.4-.7-1.2-1.1-1.9-1zm15.1-6.5-.8 3.9h2.6l-.5 2.7h-2.6l-1.8 8.9c-.2.5-.1 1 .1 1.4.2.3.6.4 1 .4.3 0 .5 0 .8-.1.2 0 .5-.1.7-.1l-.2 2.6c-.4.2-.9.3-1.3.4-.5.1-1 .1-1.5.1-1 .1-2-.4-2.7-1.2-.6-1.1-.8-2.4-.4-3.6l1.8-8.9h-2.2l.5-2.7h2.2l.8-3.9zm10.7 19.9c0-.3-.1-.7-.1-1v-1c-.6.7-1.3 1.2-2.1 1.6s-1.6.6-2.5.6c-1.2.1-2.4-.4-3.2-1.3-.7-1-1-2.3-.6-3.5.2-1.5 1.1-2.9 2.4-3.7 1.5-.9 3.3-1.3 5.1-1.2h2.3l.3-1.4c.2-.7.1-1.4-.2-2-.4-.5-1.1-.7-1.8-.7s-1.3.2-1.9.6c-.5.4-.9.9-1 1.5h-3.4v-.1c.3-1.4 1.1-2.6 2.3-3.4 1.4-1 3.1-1.5 4.8-1.4 1.4-.1 2.8.4 3.9 1.4 1 1.1 1.3 2.6.9 4.1l-1.4 7.1c-.1.6-.2 1.3-.3 1.9 0 .6 0 1.2.1 1.8zm-3.2-2.5c.7 0 1.4-.2 2-.5s1.2-.7 1.6-1.3l.6-2.8h-2.4c-.8 0-1.6.3-2.2.8-.6.4-1 1.1-1.2 1.8-.2.5-.1 1.1.2 1.5s.8.6 1.4.5z"/></g></svg>