<?xml version="1.0" encoding="utf-8"?>
<!-- Generator: Adobe Illustrator 22.0.1, SVG Export Plug-In . SVG Version: 6.00 Build 0)  -->
<svg version="1.1" id="Layer_1" xmlns="http://www.w3.org/2000/svg" xmlns:xlink="http://www.w3.org/1999/xlink" x="0px" y="0px"
	 viewBox="0 0 396.9 151.7" style="enable-background:new 0 0 396.9 151.7;" xml:space="preserve">
<style type="text/css">
	.st0{fill:url(#SVGID_1_);}
	.st1{fill:url(#SVGID_2_);}
	.st2{fill:url(#SVGID_3_);}
	.st3{fill:url(#SVGID_4_);}
	.st4{fill:url(#SVGID_5_);}
	.st5{fill:url(#SVGID_6_);}
	.st6{fill:url(#SVGID_7_);}
	.st7{fill:#FFFFFF;}
</style>
<g>
	<g>
		<g>
			<g>
				
					<linearGradient id="SVGID_1_" gradientUnits="userSpaceOnUse" x1="62.2506" y1="131.7023" x2="155.0323" y2="131.7023" gradientTransform="matrix(0.866 0.5 -0.5 0.866 41.2326 -92.5483)">
					<stop  offset="0" style="stop-color:#00A1E4"/>
					<stop  offset="0.5589" style="stop-color:#00AE66"/>
					<stop  offset="0.999" style="stop-color:#B0D235"/>
				</linearGradient>
				<path class="st0" d="M110.6,95.5l0-17.8l-0.1,0l0,0l0-21.5c0-2.5-1.3-4.8-3.5-6.1L69.5,28.3L63.2,32l-12.7,7.4L31.9,50.1
					c-2.2,1.3-3.5,3.6-3.5,6.1l0,39.4c0,2.5,1.3,4.8,3.5,6.1l37.6,21.7l6.3-3.6l12.7-7.4l18.6-10.7C109.2,100.3,110.6,98,110.6,95.5
					z M104.3,59.3l0,11.1l-9.6-5.5L104.3,59.3z M101.2,75.8L69.5,94.2l-12.7-7.4l15.9-9.2l15.9-9.2L101.2,75.8z M69.5,35.6
					l31.7,18.3l-12.7,7.4L56.7,42.9L69.5,35.6z M34.6,55.7l15.9-9.2l31.7,18.3L50.5,83.2L34.6,74L34.6,55.7z M34.6,92.3l0-11.1
					l9.6,5.5L34.6,92.3z M37.7,97.8l12.7-7.4l12.7,7.4l0,0l-12.7,7.4L37.7,97.8z M69.5,116.1l-12.7-7.4l12.7-7.4l0,0l0,0l12.7,7.4
					L69.5,116.1z M88.5,105.1l-12.7-7.4l28.6-16.5l0,14.7L88.5,105.1z"/>
				<linearGradient id="SVGID_2_" gradientUnits="userSpaceOnUse" x1="95.8631" y1="65.5997" x2="88.6137" y2="69.8285">
					<stop  offset="0" style="stop-color:#39A04D"/>
					<stop  offset="0.999" style="stop-color:#289C50"/>
				</linearGradient>
				<polygon class="st1" points="88.5,68.5 94.7,64.9 97.2,66.3 90.9,69.9 				"/>
				<linearGradient id="SVGID_3_" gradientUnits="userSpaceOnUse" x1="50.472" y1="89.3108" x2="59.1803" y2="89.3108">
					<stop  offset="0" style="stop-color:#009572"/>
					<stop  offset="0.999" style="stop-color:#009578"/>
				</linearGradient>
				<polygon class="st2" points="52.9,91.8 59.2,88.2 56.7,86.8 50.5,90.4 				"/>
				<linearGradient id="SVGID_4_" gradientUnits="userSpaceOnUse" x1="61.4501" y1="98.1804" x2="69.4243" y2="102.6508">
					<stop  offset="3.205128e-04" style="stop-color:#009858"/>
					<stop  offset="0.999" style="stop-color:#009A53"/>
				</linearGradient>
				<polygon class="st3" points="60.8,99.1 67.1,102.7 69.5,101.4 63.2,97.8 				"/>
				<linearGradient id="SVGID_5_" gradientUnits="userSpaceOnUse" x1="79.8914" y1="108.7109" x2="87.2616" y2="113.0605">
					<stop  offset="0" style="stop-color:#5FA545"/>
					<stop  offset="0.999" style="stop-color:#70A942"/>
				</linearGradient>
				<polygon class="st4" points="79.8,110.1 86.1,113.7 88.5,112.3 82.2,108.7 				"/>
				<linearGradient id="SVGID_6_" gradientUnits="userSpaceOnUse" x1="42.2243" y1="43.0041" x2="49.1112" y2="47.2329">
					<stop  offset="0" style="stop-color:#008BB2"/>
					<stop  offset="0.999" style="stop-color:#008DA7"/>
				</linearGradient>
				<polygon class="st5" points="41.8,44.3 48.1,47.9 50.5,46.5 44.2,42.9 				"/>
			</g>
			<linearGradient id="SVGID_7_" gradientUnits="userSpaceOnUse" x1="107.0251" y1="78.2392" x2="108.2333" y2="86.5759">
				<stop  offset="0" style="stop-color:#7BAB41"/>
				<stop  offset="0.999" style="stop-color:#75AB42"/>
			</linearGradient>
			<polygon class="st6" points="104.3,81.3 110.6,77.7 110.6,81.3 104.3,84.9 			"/>
		</g>
	</g>
	<g>
		<polygon class="st7" points="188.1,57.8 188.1,93.8 216.8,93.8 216.8,87.5 194.3,87.5 194.3,78.5 214.9,78.5 214.9,72.2 
			194.3,72.2 194.3,64.1 217.4,64.1 217.4,57.8 		"/>
		<polygon class="st7" points="231.1,57.8 231.1,93.8 259.9,93.8 259.9,87.5 237.4,87.5 237.4,78.5 258,78.5 258,72.2 237.4,72.2 
			237.4,64.1 260.4,64.1 260.4,57.8 		"/>
		<path class="st7" d="M300.2,57.8h-26.1v36h6.3V81.6h19.8c1.9,0,3.4-1.5,3.4-3.4v-17C303.6,59.3,302.1,57.8,300.2,57.8z
			 M297.3,75.3h-16.9V64.1h16.9V75.3z"/>
		<rect x="316.4" y="58.2" class="st7" width="6.3" height="35.6"/>
		<path class="st7" d="M362.2,58.2v26.9L343,58.2h-7.4v35.6h6.3V65.2l19.1,26.8c0.8,1.1,2.2,1.7,3.5,1.7h4l0,0.1V58.2H362.2z"/>
		<path class="st7" d="M151.3,87.4l23-23.3v-6.4H145v6.3h21.9l-19.3,19.5c-1.7,1.7-2.6,4-2.6,6.3v3.8h29.7v-6.3H151.3z"/>
	</g>
</g>
</svg>
